<?xml version="1.0" encoding="utf-8"?>
<!-- Generator: Adobe Illustrator 24.0.1, SVG Export Plug-In . SVG Version: 6.00 Build 0)  -->
<svg version="1.1" id="Layer_1" xmlns="http://www.w3.org/2000/svg" xmlns:xlink="http://www.w3.org/1999/xlink" x="0px" y="0px"
	 viewBox="0 0 25 15" style="enable-background:new 0 0 25 15;" xml:space="preserve">
<style type="text/css">
	.st0{fill-rule:evenodd;clip-rule:evenodd;fill:#FFFFFF;}
	.st1{fill-rule:evenodd;clip-rule:evenodd;fill:#23AAE1;}
	.st2{fill:none;}
</style>
<g>
	<path class="st0" d="M6.6,10.3C7,9.9,7.4,9.6,7.7,9.2C7.9,9,8,9,8.2,9.1c1.4,0.8,2.9,1.2,4.5,1.1c1.7,0,3.3-0.5,4.7-1.5
		c0.9-0.6,1.5-1.5,1.8-2.5c0.3-1.4-0.1-2.6-1-3.6c-1-1-2.2-1.6-3.5-1.9c-2.1-0.5-4.2-0.3-6.2,0.7C7.8,1.8,7.1,2.2,6.6,2.9
		C5.3,4.6,5.4,6.6,6.9,8.2c0.1,0.1,0.3,0.3,0.4,0.4c0.1,0.1,0.1,0.2,0,0.3C7.1,9.3,6.8,9.8,6.6,10.3C6.6,10.3,6.6,10.3,6.6,10.3
		 M17,8.1C17,8.1,17,8.1,17,8.1L17,8.1c-0.1,0.1-0.1,0.1-0.1,0.1c-0.3,0.3-0.6,0.4-0.9,0.6c-0.1,0.1-0.2,0.1-0.3,0.2
		c-1.7,0.7-3.4,0.8-5.1,0.4C9.8,9.2,9.2,8.8,8.6,8.5c0.8-0.7,1.6-1.3,2.5-2c0.4-0.3,0.7-0.6,1.1-0.8l0,0c0,0,0-0.1,0.1-0.1
		c0.4-0.4,0.8-0.7,1.2-0.9c0,0,0.1-0.1,0.1-0.1l0,0c0,0,0,0,0,0c1-0.7,2.1-1.4,3.2-1.9c0.1-0.1,0.2,0,0.3,0.1
		c1.6,1.4,1.7,3.7,0.1,5.2C17.2,7.9,17.1,8,17,8.1L17,8.1C17.1,8,17,8.1,17,8.1L17,8.1z M8,8C6.4,6.6,6.2,4.2,8.2,2.5
		c0.7,1.1,1.7,1.6,3,1.9C9.9,5.5,8.9,6.7,8,8z M16.9,2.5C14,3.1,11.2,3.1,8.4,2.4C10.4,0.7,14.6,0.6,16.9,2.5z"/>
	<path class="st0" d="M8.6,11.6c-0.2,0-0.5,0-0.7,0c-0.1,0-0.2,0-0.2,0.2c0,0.4,0,0.9,0,1.3c0,0.1,0,0.1,0.1,0.1c0.5,0,1,0,1.5,0
		c0.4,0,0.7-0.4,0.7-0.8c0-0.5-0.3-0.8-0.7-0.8C9.1,11.6,8.9,11.6,8.6,11.6L8.6,11.6z M8.5,12.4c0-0.5,0-0.5,0.5-0.4
		c0.2,0,0.3,0.2,0.3,0.4c0,0.2-0.1,0.4-0.3,0.4C8.5,12.9,8.5,12.9,8.5,12.4z"/>
	<path class="st0" d="M11.4,12.4c0.2,0.2,0.2,0.6,0.6,0.5c0.4,0,0.4-0.4,0.7-0.6c0,0.2,0,0.5,0,0.7c0,0.1,0,0.2,0.2,0.2
		c0.5,0,0.5,0,0.5-0.5c0-0.3-0.1-0.6-0.1-0.9c0-0.1-0.1-0.1-0.2-0.2c-0.4-0.1-0.6,0.2-0.8,0.5c-0.2,0.3-0.2,0.3-0.5,0
		c0-0.1-0.1-0.1-0.1-0.2c-0.2-0.4-0.5-0.3-0.8-0.3c-0.1,0-0.1,0.1-0.1,0.2c0,0.4-0.1,0.8-0.1,1.3c0,0.1,0,0.1,0.1,0.1
		c0.5,0,0.5,0,0.5-0.4C11.4,12.6,11.4,12.5,11.4,12.4"/>
	<path class="st0" d="M2.9,11.6c-0.2,0-0.4,0-0.7,0c-0.4,0-0.7,0.4-0.7,0.8c0,0.5,0.3,0.8,0.7,0.8c0.4,0,0.9,0,1.3,0
		c0.1,0,0.2,0,0.2-0.2c0,0,0-0.1,0-0.1c0-0.5,0-0.5-0.5-0.5c-0.2,0-0.3,0.1-0.3,0.3c0,0.1,0,0.2-0.2,0.2c-0.1,0-0.2,0-0.3,0
		c-0.2,0-0.3-0.2-0.2-0.4c0-0.2,0.1-0.3,0.3-0.3c0.3,0,0.7,0,1,0c0.2,0,0.2-0.1,0.2-0.2c0-0.1,0.1-0.3-0.2-0.3
		C3.3,11.6,3.1,11.6,2.9,11.6L2.9,11.6z"/>
	<path class="st0" d="M15,11.6c-0.3,0-0.5,0.1-0.8,0.2c-0.3,0.1-0.4,0.4-0.4,0.6c0,0.3,0.1,0.5,0.4,0.6c0.6,0.3,1.2,0.2,1.8,0
		c0.2-0.1,0.3-0.4,0.3-0.6c0-0.3-0.1-0.5-0.4-0.6C15.6,11.6,15.3,11.6,15,11.6 M15.5,12.4c0,0.3-0.2,0.5-0.5,0.5
		c-0.3,0-0.5-0.2-0.5-0.5c0-0.3,0.2-0.5,0.5-0.5C15.4,11.9,15.5,12.1,15.5,12.4z"/>
	<path class="st0" d="M19.7,11.6c-0.3,0-0.5,0.1-0.8,0.2c-0.3,0.1-0.4,0.4-0.4,0.7c0,0.3,0.2,0.5,0.5,0.6c0.5,0.2,0.9,0.2,1.4,0.1
		c0.4-0.1,0.6-0.4,0.6-0.8c0-0.3-0.2-0.6-0.6-0.7C20.2,11.6,19.9,11.6,19.7,11.6 M19.3,12.4c0-0.3,0.2-0.5,0.5-0.5
		c0.3,0,0.5,0.2,0.5,0.5c0,0.3-0.2,0.5-0.5,0.5C19.4,12.9,19.3,12.7,19.3,12.4z"/>
	<path class="st0" d="M23.5,13.2c-0.2-0.2-0.3-0.4-0.5-0.5c-0.1-0.1-0.1-0.1,0-0.2c0.3-0.3,0.3-0.6-0.1-0.7c-0.5-0.2-1-0.1-1.5-0.1
		c-0.1,0-0.1,0.1-0.1,0.1c0,0.4,0,0.9,0,1.3c0,0.1,0,0.1,0.1,0.1c0,0,0,0,0,0c0.5,0,0.5,0,0.5-0.5c0-0.2,0-0.4,0-0.6
		c0-0.1,0-0.2,0.1-0.2c0.1,0,0.2,0,0.3,0.1c0.1,0.1,0,0.1,0,0.2c0,0,0,0,0,0c-0.3,0.2-0.1,0.3,0,0.5C22.7,13.3,23.1,13.2,23.5,13.2"
		/>
	<path class="st0" d="M5.1,13.2c0.2,0,0.4,0,0.6,0c0.1,0,0.2,0,0.2-0.2c0-0.1,0.1-0.2,0.2-0.2c0.1,0,0.2,0,0.3,0
		c0.1,0,0.2,0,0.2,0.1c0,0.1,0,0.2,0.2,0.2c0.2,0,0.4,0,0.5,0c0.1,0,0-0.1,0-0.1c-0.2-0.5-0.5-0.9-0.7-1.4c-0.1-0.2-0.7-0.2-0.8,0
		c-0.1,0.1-0.1,0.2-0.2,0.3C5.5,12.4,5.3,12.8,5.1,13.2 M6,12.6c0-0.1,0.1-0.3,0.1-0.4c0-0.1,0-0.1,0.1-0.1c0.1,0,0.1,0,0.1,0.1
		c0,0.1,0.1,0.3,0.1,0.4H6z"/>
	<path class="st0" d="M17.4,11.6c-0.3,0-0.6,0-0.8,0c-0.1,0-0.2,0-0.2,0.2c0,0.1,0.1,0.2,0.2,0.2c0.2,0,0.4-0.1,0.5,0.1
		c0.1,0.1,0,0.3,0,0.5c0,0.1,0,0.3,0,0.4c0,0.2,0.1,0.3,0.3,0.3c0.4,0,0.4,0,0.4-0.4c0-0.2,0-0.4,0-0.6c0-0.2,0.1-0.2,0.2-0.2
		c0.1,0,0.2,0,0.3,0c0.1,0,0.2-0.1,0.2-0.2c0-0.1-0.1-0.2-0.2-0.2C18,11.6,17.7,11.6,17.4,11.6L17.4,11.6z"/>
	<path class="st0" d="M4.1,12.4c0,0.2,0,0.4,0,0.6c0,0.1,0,0.2,0.2,0.2c0.5,0,0.5,0,0.5-0.5c0-0.3,0-0.6,0-0.9c0-0.1,0-0.2-0.2-0.2
		c-0.5,0-0.5,0-0.5,0.5V12.4z"/>
	<path class="st1" d="M15.9,8.8c0.3-0.2,0.6-0.4,0.9-0.6c0,0,0-0.1,0.1,0l0,0c0,0,0-0.1,0.1-0.1l0,0C17,8,17,8,17,8l0,0
		c0-0.1,0.1-0.1,0.1-0.2c0.4-0.7,0.4-1.5-0.1-2.2c-0.7-0.9-1.7-1.2-2.8-1.1c-0.2,0-0.5,0.1-0.7,0.1l0,0c0,0.1-0.1,0-0.1,0.1
		c-0.5,0.2-0.9,0.5-1.2,0.9c0,0,0,0.1-0.1,0.1l0,0c0,0.1-0.1,0.2-0.1,0.3c-0.3,0.7-0.3,1.4,0.3,2.1c0.5,0.7,1.3,1,2.1,1
		C15,9,15.4,8.9,15.9,8.8"/>
	<path class="st2" d="M18.4,14.6"/>
</g>
</svg>
